<?xml version="1.0" standalone="no"?>
<!DOCTYPE svg PUBLIC "-//W3C//DTD SVG 20010904//EN"
 "http://www.w3.org/TR/2001/REC-SVG-20010904/DTD/svg10.dtd">
<svg version="1.0" xmlns="http://www.w3.org/2000/svg"
 width="1667.000000pt" height="1667.000000pt" viewBox="0 0 1667.000000 1667.000000"
 preserveAspectRatio="xMidYMid meet">
<metadata>
Created by potrace 1.14, written by Peter Selinger 2001-2017
</metadata>
<g transform="translate(0.000000,1667.000000) scale(0.100000,-0.100000)"
fill="#000000" stroke="none">
<path d="M6039 10087 c-25 -7 -64 -24 -87 -38 -23 -13 -808 -790 -1744 -1726
-1235 -1233 -1710 -1713 -1726 -1746 -50 -101 -20 -210 87 -310 93 -87 188
-109 280 -65 35 16 393 368 1506 1477 l1460 1456 5 -1390 5 -1390 23 -48 c46
-92 124 -131 261 -130 125 2 196 39 244 128 l22 40 3 1760 c2 1264 0 1775 -8
1812 -23 106 -102 170 -223 178 -35 3 -82 -1 -108 -8z"/>
<path d="M10480 10091 c-87 -18 -147 -69 -176 -148 -21 -59 -20 -3552 0 -3611
32 -91 89 -134 196 -151 122 -19 242 14 294 82 55 72 56 88 56 874 l0 722
1248 4 c1225 3 1249 3 1337 24 474 110 708 383 766 893 16 138 6 404 -20 530
-89 441 -339 683 -794 767 -84 16 -219 17 -1482 19 -764 1 -1406 -1 -1425 -5z
m2756 -566 c228 -40 357 -167 401 -396 18 -98 13 -270 -11 -358 -37 -134 -117
-236 -228 -290 -127 -62 -88 -61 -1375 -61 l-1173 0 0 560 0 560 1149 0 c992
0 1160 -2 1237 -15z"/>
<path d="M6805 10072 c11 -10 53 -49 93 -87 l72 -68 0 86 0 87 -92 0 c-90 0
-92 -1 -73 -18z"/>
<path d="M7020 9977 l0 -112 183 -183 c100 -100 186 -182 190 -182 4 0 7 88 7
195 0 188 1 195 20 195 19 0 20 -7 20 -222 l-1 -223 173 -167 173 -166 5 301
5 302 22 3 23 3 2 -338 3 -338 168 -3 167 -2 0 225 c0 218 1 225 20 225 19 0
20 -7 20 -225 l0 -225 140 0 140 0 2 223 c3 214 4 222 23 222 19 0 20 -8 23
-222 l2 -223 175 0 175 0 0 245 0 245 25 0 25 0 0 -245 0 -245 160 0 c153 0
160 1 160 20 0 15 7 20 25 20 18 0 25 -5 25 -20 0 -19 7 -20 135 -20 l135 0 0
125 c0 118 1 125 20 125 19 0 20 -7 20 -124 l0 -125 40 -3 c22 -2 40 -7 40
-13 0 -5 -18 -11 -40 -13 l-40 -3 0 -184 0 -184 40 -3 c22 -2 40 -7 40 -13 0
-5 -18 -11 -40 -13 l-40 -3 0 -74 c0 -66 5 -85 50 -187 l49 -113 3 835 c3 677
6 842 17 872 19 50 65 104 109 128 37 19 26 19 -1400 20 l-1438 0 0 -113z"/>
<path d="M6940 9070 c0 -27 3 -30 32 -30 l32 0 -29 30 c-16 17 -30 30 -32 30
-2 0 -3 -13 -3 -30z"/>
<path d="M6940 8825 l0 -185 85 0 85 0 0 148 0 148 -38 37 c-33 32 -44 37 -85
37 l-47 0 0 -185z"/>
<path d="M8030 8865 c80 -80 146 -145 147 -145 2 0 3 65 3 145 l0 145 -147 0
-148 0 145 -145z"/>
<path d="M8220 8842 c0 -213 -9 -202 158 -202 l122 0 0 185 0 185 -140 0 -140
0 0 -168z"/>
<path d="M8550 8825 l0 -185 163 0 164 0 11 25 c8 16 12 86 12 185 l0 160
-175 0 -175 0 0 -185z"/>
<path d="M8950 8844 c0 -95 4 -174 10 -185 10 -17 23 -19 160 -19 l150 0 0
185 0 185 -160 0 -160 0 0 -166z"/>
<path d="M9320 8825 l0 -185 135 0 135 0 0 185 0 185 -135 0 -135 0 0 -185z"/>
<path d="M7150 8765 l0 -125 127 0 128 0 -125 125 c-69 69 -126 125 -127 125
-2 0 -3 -56 -3 -125z"/>
<path d="M6940 8430 l0 -180 85 0 85 0 0 180 0 180 -85 0 -85 0 0 -180z"/>
<path d="M7150 8430 l0 -180 220 0 220 0 0 103 0 102 -78 78 -77 77 -143 0
-142 0 0 -180z"/>
<path d="M8355 8540 l69 -69 28 65 c15 36 28 68 28 70 0 2 -44 4 -97 4 l-97 0
69 -70z"/>
<path d="M8606 8510 l44 -100 -24 -58 -24 -57 21 -22 c15 -17 32 -23 63 -23
41 0 43 1 46 33 2 24 8 32 23 32 15 0 21 -8 23 -32 3 -32 4 -33 53 -33 27 0
49 3 49 6 0 4 -19 49 -41 101 l-42 95 28 66 c15 37 29 73 32 80 4 9 -29 12
-145 12 l-150 0 44 -100z"/>
<path d="M9016 8533 l35 -77 -45 -103 -45 -103 155 0 154 0 0 180 0 180 -144
0 -145 0 35 -77z"/>
<path d="M9320 8430 l0 -180 89 0 88 0 47 105 c41 95 46 114 46 180 l0 75
-135 0 -135 0 0 -180z"/>
<path d="M8876 8546 l-17 -43 43 -97 42 -97 23 45 23 45 -41 95 c-23 53 -45
96 -49 96 -4 0 -15 -20 -24 -44z"/>
<path d="M7630 8330 l0 -80 82 0 83 0 -80 80 c-44 44 -81 80 -82 80 -2 0 -3
-36 -3 -80z"/>
<path d="M9567 8318 c-25 -64 -23 -68 27 -68 l45 0 -21 48 c-29 67 -33 68 -51
20z"/>
<path d="M6940 8035 l0 -185 65 0 c36 0 65 2 65 4 0 2 -13 34 -30 71 -16 37
-30 73 -30 79 0 7 20 59 44 115 l45 101 -80 0 -79 0 0 -185z"/>
<path d="M7170 8214 c0 -3 16 -42 36 -87 20 -45 40 -91 44 -103 6 -14 -2 -43
-25 -98 l-34 -77 152 3 151 3 47 105 c43 95 48 113 48 183 l1 77 -210 0 c-115
0 -210 -3 -210 -6z"/>
<path d="M7630 8145 c0 -68 5 -87 47 -185 l48 -110 117 0 118 0 0 118 0 118
-68 67 -68 67 -97 0 -97 0 0 -75z"/>
<path d="M8700 8195 c13 -14 25 -25 27 -25 2 0 3 11 3 25 0 20 -5 25 -27 25
l-26 0 23 -25z"/>
<path d="M8780 8167 l0 -52 133 -133 132 -132 93 0 c50 0 92 3 92 6 0 3 -13
36 -30 74 -16 38 -30 71 -30 75 0 4 16 43 36 88 20 45 40 92 45 105 l9 22
-155 0 -154 0 -15 -27 -14 -28 -11 28 c-10 25 -14 27 -71 27 l-60 0 0 -53z"/>
<path d="M9333 8208 c3 -7 24 -56 46 -109 l42 -95 -31 -68 c-16 -37 -30 -72
-30 -77 0 -5 80 -10 178 -11 239 -4 231 -21 -14 -28 l-187 -5 -21 -49 -21 -49
-24 52 -24 51 -86 0 -86 0 180 -180 179 -179 141 -3 c174 -4 184 -21 15 -28
l-120 -5 130 -130 130 -130 0 514 c0 283 -2 512 -4 510 -2 -2 -27 -59 -56
-126 -29 -68 -56 -123 -60 -123 -4 0 -33 62 -66 138 l-60 137 -78 3 c-61 2
-77 0 -73 -10z"/>
<path d="M9570 8216 c0 -2 9 -26 21 -53 11 -26 25 -59 31 -73 9 -24 10 -24 30
23 30 69 18 101 -40 105 -23 2 -42 1 -42 -2z"/>
<path d="M9250 8105 l-21 -49 43 -98 43 -98 23 45 22 45 -44 102 -45 103 -21
-50z"/>
<path d="M7087 8105 c-9 -20 -17 -40 -17 -46 0 -6 19 -54 42 -107 l42 -95 22
48 21 49 -40 93 c-22 51 -43 93 -47 93 -3 0 -14 -16 -23 -35z"/>
<path d="M8010 7940 l0 -90 92 0 93 0 -90 90 c-49 50 -91 90 -92 90 -2 0 -3
-40 -3 -90z"/>
<path d="M6940 7640 l0 -180 490 0 489 0 -30 71 -30 71 45 104 c25 57 46 107
46 109 0 3 -49 5 -108 5 l-109 0 -58 -136 c-33 -74 -62 -137 -65 -139 -3 -2
-32 60 -65 136 l-60 139 -153 0 -153 0 -24 -52 -23 -53 -22 53 -23 52 -73 0
-74 0 0 -180z"/>
<path d="M8020 7816 c0 -2 20 -50 45 -107 26 -57 44 -111 42 -119 -3 -8 -16
-41 -31 -72 l-26 -58 113 0 112 0 43 99 c23 55 42 105 42 113 0 7 -30 44 -68
81 l-68 67 -102 0 c-56 0 -102 -2 -102 -4z"/>
<path d="M8429 7598 c5 -13 21 -49 35 -80 l26 -58 47 0 48 0 -80 80 c-44 44
-81 80 -82 80 -1 0 1 -10 6 -22z"/>
<path d="M6940 7245 l0 -185 881 0 c701 0 880 3 876 13 -2 6 -19 47 -37 90
l-33 78 27 61 26 62 -32 33 c-29 30 -38 33 -88 33 -46 0 -56 -3 -57 -17 -1
-10 -29 -79 -62 -153 l-60 -135 -19 45 c-11 25 -38 87 -61 139 -22 52 -41 100
-41 108 0 10 -25 13 -111 13 l-110 0 -25 -55 c-14 -30 -29 -53 -32 -51 -4 2
-16 27 -27 55 l-19 51 -498 0 -498 0 0 -185z"/>
<path d="M8695 7308 c-5 -20 58 -185 78 -204 3 -3 15 15 26 41 19 44 20 49 5
78 -17 34 -83 107 -96 107 -4 0 -10 -10 -13 -22z"/>
<path d="M8827 7120 l-26 -60 96 0 96 0 -63 58 c-35 31 -66 58 -70 60 -3 1
-18 -25 -33 -58z"/>
<path d="M6940 6850 l0 -180 1222 0 1223 0 -180 180 -180 180 -117 0 -118 0
-19 -37 -19 -38 -18 38 -18 37 -888 0 -888 0 0 -180z"/>
<path d="M6940 6558 c-1 -116 -15 -211 -38 -258 l-19 -40 1456 0 1456 0 -190
190 -190 190 -1237 0 -1238 0 0 -82z"/>
<path d="M6825 6215 l-40 -25 1550 0 1550 0 -30 25 -30 24 -1480 0 -1480 0
-40 -24z"/>
</g>
</svg>
